<svg width="32" height="33" viewBox="0 0 32 33" fill="none" xmlns="http://www.w3.org/2000/svg">
<path fill-rule="evenodd" clip-rule="evenodd" d="M30.6879 28.9115C30.4746 29.1178 30.2328 29.3062 29.9625 29.4769C29.6994 29.6405 29.4114 29.7863 29.0985 29.9143C28.7927 30.0494 28.4655 30.1667 28.1171 30.2663C27.7686 30.3659 27.4059 30.4548 27.029 30.533C26.6521 30.6112 26.261 30.6823 25.8556 30.7463C25.4573 30.8032 25.052 30.8601 24.6395 30.917C24.2199 30.9668 23.8003 31.013 23.3808 31.0557C22.9541 31.1055 22.5309 31.1517 22.1113 31.1944C21.6918 31.2441 21.2722 31.2975 20.8526 31.3544C20.4401 31.4113 20.0312 31.4717 19.6258 31.5357C19.2276 31.6068 18.8365 31.678 18.4524 31.7491C18.0613 31.8273 17.6808 31.9055 17.311 31.9837C16.9341 32.062 16.5643 32.1402 16.2016 32.2184C15.846 32.2967 15.494 32.3713 15.1455 32.4424C14.7971 32.5065 14.4522 32.5669 14.1108 32.6238C13.7766 32.6878 13.4459 32.7376 13.1187 32.7731C12.7916 32.8158 12.468 32.8443 12.148 32.8585C11.8351 32.8727 11.5257 32.8727 11.2199 32.8585C10.907 32.8443 10.6012 32.8158 10.3026 32.7731C10.0039 32.7234 9.70874 32.6593 9.41716 32.5811C9.12559 32.4958 8.84112 32.3927 8.56377 32.2718C8.27931 32.1509 8.00196 32.0122 7.73172 31.8557C7.46148 31.7064 7.19835 31.5393 6.94233 31.3544C6.68631 31.1766 6.43741 30.981 6.19561 30.7677C5.95382 30.5614 5.72269 30.341 5.50223 30.1063C5.27466 29.8787 5.06132 29.6369 4.86219 29.3809C4.65595 29.132 4.46039 28.8724 4.27549 28.6022C4.09058 28.3391 3.91635 28.0653 3.75278 27.7808C3.58922 27.5034 3.43987 27.219 3.30475 26.9274C3.16963 26.6358 3.04518 26.3407 2.9314 26.042C2.81761 25.7362 2.71805 25.4304 2.63271 25.1246C2.54026 24.8188 2.45847 24.5095 2.38736 24.1966C2.31624 23.8837 2.25224 23.5672 2.19535 23.2472C2.13845 22.9271 2.08512 22.6 2.03534 22.2658C1.99267 21.9386 1.95 21.6044 1.90733 21.263C1.86466 20.9288 1.82554 20.5874 1.78999 20.239C1.74732 19.8905 1.70465 19.5385 1.66198 19.1829C1.61931 18.8344 1.57664 18.4753 1.53397 18.1055C1.48419 17.7428 1.43085 17.373 1.37396 16.9961C1.30995 16.6263 1.24239 16.2494 1.17128 15.8653C1.10016 15.4813 1.02549 15.0937 0.947263 14.7026C0.869036 14.3186 0.790808 13.931 0.712581 13.5399C0.634353 13.1416 0.556126 12.7469 0.477899 12.3558C0.399671 11.9646 0.332111 11.5771 0.275218 11.193C0.211214 10.8019 0.154321 10.4179 0.10454 10.041C0.0618708 9.66404 0.0334245 9.29068 0.0192013 8.92088C-0.00213348 8.55108 -0.00568927 8.18838 0.0085339 7.8328C0.0227571 7.47723 0.0547592 7.13231 0.10454 6.79807C0.154321 6.45671 0.228993 6.12958 0.328555 5.81667C0.421006 5.50376 0.541903 5.20152 0.691246 4.90994C0.840589 4.61837 1.01127 4.33746 1.20328 4.06722C1.39529 3.80409 1.60508 3.55519 1.83266 3.3205C2.06734 3.08582 2.3198 2.86536 2.59004 2.65913C2.85317 2.45289 3.13052 2.26443 3.42209 2.09376C3.72078 1.91597 4.02658 1.75951 4.33949 1.62439C4.65951 1.48216 4.98664 1.36126 5.32089 1.2617C5.64802 1.16214 5.98227 1.08035 6.32362 1.01635C6.67209 0.952346 7.017 0.909677 7.35836 0.888342C7.70683 0.867007 8.05174 0.863451 8.39309 0.877675C8.74156 0.899009 9.08292 0.941679 9.41716 1.00568C9.75852 1.06969 10.0963 1.15147 10.4306 1.25103C10.7577 1.35059 11.0848 1.46438 11.412 1.59239C11.7391 1.7204 12.0662 1.86263 12.3934 2.01908C12.7134 2.16843 13.0334 2.32844 13.3534 2.49912C13.6806 2.66268 14.0041 2.83336 14.3242 3.01115C14.6442 3.18894 14.9642 3.36673 15.2842 3.54452C15.6114 3.7152 15.9385 3.88587 16.2656 4.05655C16.5856 4.22723 16.9128 4.3908 17.247 4.54725C17.5741 4.70371 17.9048 4.85305 18.2391 4.99528C18.5804 5.1304 18.9218 5.2513 19.2632 5.35797C19.6045 5.47176 19.9494 5.57132 20.2979 5.65666C20.6392 5.74911 20.9842 5.83089 21.3326 5.90201C21.674 5.97313 22.0153 6.04069 22.3567 6.10469C22.698 6.17581 23.0323 6.24337 23.3594 6.30737C23.6937 6.36426 24.0172 6.42827 24.3302 6.49938C24.6502 6.5705 24.9595 6.64517 25.2582 6.7234C25.5569 6.80163 25.8449 6.89052 26.1223 6.99008C26.3996 7.08964 26.6628 7.19987 26.9117 7.32077C27.1606 7.44167 27.3952 7.58034 27.6157 7.7368C27.8362 7.89325 28.0424 8.06393 28.2344 8.24883C28.4193 8.44085 28.59 8.65064 28.7465 8.87821C28.9029 9.10578 29.0451 9.34757 29.1731 9.60359C29.3012 9.85961 29.4221 10.1334 29.5358 10.425C29.6425 10.7094 29.7421 11.0117 29.8345 11.3317C29.927 11.6446 30.0123 11.9717 30.0905 12.3131C30.1688 12.6473 30.2399 12.9958 30.3039 13.3585C30.375 13.7212 30.4426 14.091 30.5066 14.4679C30.5706 14.8519 30.6346 15.2395 30.6986 15.6307C30.7626 16.0289 30.8301 16.4343 30.9013 16.8467C30.9724 17.2521 31.0435 17.6646 31.1146 18.0842C31.1928 18.5037 31.2675 18.9269 31.3386 19.3536C31.4168 19.7803 31.4915 20.2034 31.5626 20.623C31.6338 21.0497 31.6978 21.4693 31.7546 21.8817C31.8187 22.3013 31.8684 22.7138 31.904 23.1192C31.9467 23.5245 31.9751 23.9192 31.9893 24.3032C32.0036 24.6873 32.0036 25.0606 31.9893 25.4233C31.968 25.786 31.9289 26.1309 31.872 26.458C31.8151 26.7923 31.7333 27.1052 31.6266 27.3968C31.5271 27.6955 31.3991 27.9693 31.2426 28.2182C31.0862 28.4742 30.9013 28.7053 30.6879 28.9115Z" fill="#EEAB3C"/>
<path fill-rule="evenodd" clip-rule="evenodd" d="M25.5565 24.2675C25.4163 24.3958 25.2575 24.513 25.0799 24.6192C24.9071 24.721 24.7179 24.8117 24.5123 24.8913C24.3114 24.9753 24.0965 25.0483 23.8675 25.1103C23.6386 25.1722 23.4003 25.2275 23.1527 25.2762C22.9051 25.3248 22.6481 25.3691 22.3818 25.4089C22.1201 25.4443 21.8538 25.4797 21.5828 25.5151C21.3072 25.546 21.0315 25.5748 20.7559 25.6013C20.4755 25.6323 20.1976 25.6611 19.9219 25.6876C19.6462 25.7186 19.3706 25.7518 19.0949 25.7872C18.8239 25.8226 18.5553 25.8602 18.289 25.9C18.0273 25.9442 17.7704 25.9885 17.5181 26.0327C17.2611 26.0814 17.0112 26.13 16.7682 26.1787C16.5206 26.2274 16.2776 26.276 16.0393 26.3247C15.8057 26.3733 15.5745 26.4198 15.3455 26.464C15.1166 26.5039 14.89 26.5415 14.6657 26.5769C14.4461 26.6167 14.2289 26.6476 14.014 26.6698C13.7991 26.6963 13.5865 26.714 13.3762 26.7228C13.1706 26.7317 12.9674 26.7317 12.7665 26.7228C12.5609 26.714 12.36 26.6963 12.1638 26.6698C11.9676 26.6388 11.7737 26.599 11.5821 26.5503C11.3906 26.4972 11.2037 26.4331 11.0215 26.3579C10.8346 26.2827 10.6524 26.1964 10.4748 26.0991C10.2973 26.0062 10.1244 25.9022 9.95621 25.7872C9.78802 25.6766 9.62449 25.5549 9.46564 25.4222C9.30678 25.2939 9.15494 25.1567 9.0101 25.0107C8.86059 24.8692 8.72043 24.7187 8.58961 24.5595C8.45412 24.4046 8.32563 24.2432 8.20416 24.075C8.08268 23.9114 7.96821 23.741 7.86076 23.5641C7.7533 23.3915 7.65518 23.2146 7.56641 23.0332C7.47764 22.8518 7.39588 22.6682 7.32112 22.4824C7.24637 22.2921 7.18096 22.1019 7.12489 21.9117C7.06415 21.7214 7.01042 21.529 6.9637 21.3343C6.91698 21.1397 6.87493 20.9428 6.83756 20.7437C6.80018 20.5446 6.76514 20.3411 6.73243 20.1332C6.7044 19.9297 6.67637 19.7218 6.64833 19.5094C6.6203 19.3015 6.5946 19.0891 6.57124 18.8723C6.54321 18.6556 6.51518 18.4366 6.48714 18.2154C6.45911 17.9986 6.43108 17.7752 6.40305 17.5451C6.37034 17.3195 6.3353 17.0894 6.29792 16.855C6.25587 16.6249 6.21149 16.3904 6.16477 16.1515C6.11804 15.9126 6.06899 15.6715 6.01759 15.4282C5.9662 15.1893 5.91481 14.9482 5.86341 14.7049C5.81202 14.4571 5.76063 14.2116 5.70923 13.9683C5.65784 13.7249 5.61345 13.4838 5.57608 13.2449C5.53403 13.0016 5.49665 12.7627 5.46394 12.5282C5.43591 12.2938 5.41722 12.0615 5.40788 11.8314C5.39386 11.6014 5.39153 11.3758 5.40087 11.1546C5.41021 10.9334 5.43124 10.7188 5.46394 10.5109C5.49665 10.2985 5.54571 10.095 5.61112 9.90033C5.67185 9.70567 5.75128 9.51765 5.8494 9.33626C5.94751 9.15488 6.05964 8.98013 6.18579 8.81201C6.31194 8.64832 6.44977 8.49348 6.59928 8.34749C6.75346 8.20149 6.91932 8.06435 7.09686 7.93605C7.26973 7.80775 7.45194 7.69051 7.6435 7.58433C7.83973 7.47373 8.04063 7.3764 8.24621 7.29235C8.45645 7.20386 8.67137 7.12866 8.89096 7.06672C9.10588 7.00478 9.32547 6.9539 9.54974 6.91409C9.77867 6.87427 10.0053 6.84773 10.2295 6.83445C10.4585 6.82118 10.6851 6.81897 10.9093 6.82782C11.1383 6.84109 11.3625 6.86764 11.5821 6.90745C11.8064 6.94727 12.0283 6.99815 12.2479 7.06008C12.4628 7.12202 12.6777 7.1928 12.8927 7.27244C13.1076 7.35207 13.3225 7.44055 13.5374 7.53788C13.7477 7.63079 13.9579 7.73033 14.1682 7.83651C14.3831 7.93826 14.5957 8.04444 14.8059 8.15504C15.0161 8.26564 15.2264 8.37624 15.4366 8.48684C15.6516 8.59302 15.8665 8.6992 16.0814 8.80538C16.2916 8.91155 16.5066 9.01331 16.7262 9.11064C16.9411 9.20797 17.1583 9.30087 17.3779 9.38935C17.6022 9.47341 17.8264 9.54862 18.0507 9.61498C18.275 9.68577 18.5016 9.7477 18.7305 9.80079C18.9548 9.8583 19.1814 9.90918 19.4103 9.95342C19.6346 9.99766 19.8588 10.0397 20.0831 10.0795C20.3074 10.1237 20.5269 10.1658 20.7419 10.2056C20.9615 10.241 21.174 10.2808 21.3796 10.325C21.5899 10.3693 21.7931 10.4157 21.9893 10.4644C22.1856 10.5131 22.3748 10.5684 22.557 10.6303C22.7392 10.6922 22.9121 10.7608 23.0756 10.836C23.2391 10.9112 23.3933 10.9975 23.5381 11.0948C23.683 11.1922 23.8185 11.2983 23.9446 11.4134C24.0661 11.5328 24.1782 11.6633 24.281 11.8049C24.3838 11.9465 24.4772 12.0969 24.5613 12.2561C24.6454 12.4154 24.7249 12.5857 24.7996 12.7671C24.8697 12.9441 24.9351 13.1321 24.9958 13.3312C25.0566 13.5259 25.1127 13.7294 25.164 13.9417C25.2154 14.1497 25.2622 14.3664 25.3042 14.5921C25.3509 14.8177 25.3953 15.0477 25.4374 15.2822C25.4794 15.5211 25.5215 15.7622 25.5635 16.0055C25.6056 16.2533 25.6499 16.5055 25.6967 16.7621C25.7434 17.0142 25.7901 17.2708 25.8368 17.5318C25.8882 17.7929 25.9373 18.0561 25.984 18.3215C26.0354 18.587 26.0845 18.8502 26.1312 19.1112C26.1779 19.3767 26.22 19.6377 26.2573 19.8943C26.2994 20.1553 26.3321 20.4119 26.3554 20.6641C26.3835 20.9163 26.4022 21.1618 26.4115 21.4007C26.4209 21.6396 26.4209 21.8719 26.4115 22.0975C26.3975 22.3231 26.3718 22.5377 26.3344 22.7412C26.297 22.9491 26.2433 23.1438 26.1732 23.3252C26.1078 23.511 26.0237 23.6813 25.9209 23.8361C25.8181 23.9954 25.6967 24.1392 25.5565 24.2675Z" fill="#D39B40"/>
<path fill-rule="evenodd" clip-rule="evenodd" d="M21.6359 21.2099C21.5541 21.2842 21.4613 21.3521 21.3576 21.4137C21.2566 21.4726 21.1461 21.5252 21.026 21.5713C20.9087 21.62 20.7832 21.6623 20.6495 21.6982C20.5157 21.7341 20.3766 21.7661 20.2319 21.7943C20.0873 21.8225 19.9372 21.8482 19.7817 21.8712C19.6289 21.8918 19.4733 21.9123 19.315 21.9328C19.154 21.9507 18.993 21.9674 18.832 21.9828C18.6683 22.0007 18.5059 22.0174 18.3449 22.0327C18.1839 22.0507 18.0229 22.0699 17.8619 22.0904C17.7037 22.1109 17.5467 22.1327 17.3912 22.1558C17.2384 22.1814 17.0883 22.2071 16.9409 22.2327C16.7908 22.2609 16.6449 22.2891 16.503 22.3173C16.3583 22.3455 16.2164 22.3737 16.0772 22.4019C15.9408 22.4301 15.8057 22.457 15.672 22.4826C15.5383 22.5057 15.4059 22.5275 15.275 22.548C15.1467 22.5711 15.0198 22.589 14.8943 22.6018C14.7688 22.6172 14.6446 22.6275 14.5218 22.6326C14.4017 22.6377 14.283 22.6377 14.1657 22.6326C14.0456 22.6275 13.9283 22.6172 13.8137 22.6018C13.699 22.5839 13.5858 22.5608 13.4739 22.5326C13.362 22.5019 13.2529 22.4647 13.1464 22.4211C13.0373 22.3775 12.9309 22.3275 12.8272 22.2712C12.7235 22.2173 12.6225 22.1571 12.5243 22.0904C12.426 22.0263 12.3305 21.9558 12.2377 21.8789C12.145 21.8046 12.0563 21.7251 11.9717 21.6405C11.8844 21.5585 11.8025 21.4713 11.7261 21.3791C11.6469 21.2893 11.5719 21.1958 11.5009 21.0984C11.43 21.0035 11.3631 20.9048 11.3004 20.8023C11.2376 20.7023 11.1803 20.5998 11.1285 20.4947C11.0766 20.3896 11.0289 20.2832 10.9852 20.1755C10.9415 20.0653 10.9033 19.955 10.8706 19.8448C10.8351 19.7346 10.8037 19.6231 10.7764 19.5103C10.7491 19.3975 10.7246 19.2834 10.7028 19.1681C10.6809 19.0527 10.6605 18.9348 10.6414 18.8143C10.625 18.6964 10.6086 18.5759 10.5922 18.4528C10.5759 18.3324 10.5609 18.2093 10.5472 18.0837C10.5308 17.9581 10.5145 17.8312 10.4981 17.703C10.4817 17.5774 10.4653 17.448 10.449 17.3147C10.4299 17.1839 10.4094 17.0506 10.3876 16.9148C10.363 16.7815 10.3371 16.6456 10.3098 16.5072C10.2825 16.3687 10.2539 16.229 10.2238 16.088C10.1938 15.9496 10.1638 15.8099 10.1338 15.6689C10.1038 15.5254 10.0737 15.3831 10.0437 15.2421C10.0137 15.1011 9.98779 14.9614 9.96596 14.823C9.9414 14.682 9.91957 14.5435 9.90047 14.4077C9.88409 14.2718 9.87318 14.1372 9.86772 14.0039C9.85953 13.8706 9.85817 13.7399 9.86363 13.6117C9.86908 13.4835 9.88136 13.3592 9.90047 13.2387C9.91957 13.1157 9.94822 12.9978 9.98643 12.885C10.0219 12.7722 10.0683 12.6632 10.1256 12.5581C10.1829 12.453 10.2484 12.3518 10.3221 12.2544C10.3958 12.1595 10.4763 12.0698 10.5636 11.9852C10.6536 11.9006 10.7505 11.8211 10.8542 11.7468C10.9552 11.6724 11.0616 11.6045 11.1735 11.543C11.2881 11.4789 11.4054 11.4225 11.5255 11.3738C11.6483 11.3225 11.7738 11.279 11.9021 11.2431C12.0276 11.2072 12.1559 11.1777 12.2869 11.1546C12.4206 11.1316 12.5529 11.1162 12.6839 11.1085C12.8176 11.1008 12.95 11.0995 13.081 11.1046C13.2147 11.1123 13.3457 11.1277 13.4739 11.1508C13.6049 11.1739 13.7345 11.2033 13.8628 11.2392C13.9883 11.2751 14.1138 11.3161 14.2394 11.3623C14.3649 11.4084 14.4904 11.4597 14.6159 11.5161C14.7387 11.5699 14.8615 11.6276 14.9843 11.6891C15.1099 11.7481 15.234 11.8096 15.3568 11.8737C15.4796 11.9378 15.6024 12.0019 15.7252 12.0659C15.8508 12.1275 15.9763 12.189 16.1018 12.2505C16.2246 12.312 16.3501 12.371 16.4784 12.4274C16.6039 12.4838 16.7308 12.5376 16.8591 12.5889C16.9901 12.6376 17.121 12.6812 17.252 12.7196C17.383 12.7606 17.5154 12.7965 17.6491 12.8273C17.7801 12.8606 17.9124 12.8901 18.0461 12.9157C18.1771 12.9414 18.3081 12.9657 18.4391 12.9888C18.5701 13.0144 18.6983 13.0388 18.8239 13.0619C18.9521 13.0824 19.0763 13.1054 19.1963 13.1311C19.3191 13.1567 19.4378 13.1836 19.5525 13.2118C19.6671 13.24 19.7776 13.2721 19.884 13.3079C19.9904 13.3438 20.0914 13.3836 20.1869 13.4271C20.2824 13.4707 20.3725 13.5207 20.4571 13.5771C20.5417 13.6335 20.6208 13.695 20.6945 13.7617C20.7654 13.8309 20.8309 13.9065 20.891 13.9886C20.951 14.0706 21.0056 14.1577 21.0547 14.25C21.1038 14.3423 21.1502 14.441 21.1939 14.5461C21.2348 14.6486 21.273 14.7576 21.3085 14.873C21.344 14.9857 21.3767 15.1037 21.4067 15.2267C21.4367 15.3472 21.464 15.4728 21.4886 15.6035C21.5159 15.7343 21.5418 15.8676 21.5664 16.0034C21.5909 16.1419 21.6155 16.2816 21.64 16.4226C21.6646 16.5661 21.6905 16.7122 21.7178 16.8609C21.7451 17.007 21.7724 17.1557 21.7997 17.307C21.8297 17.4582 21.8583 17.6107 21.8856 17.7646C21.9157 17.9184 21.9443 18.0709 21.9716 18.2221C21.9989 18.3759 22.0234 18.5272 22.0453 18.6759C22.0698 18.8271 22.0889 18.9758 22.1026 19.1219C22.119 19.268 22.1299 19.4103 22.1353 19.5487C22.1408 19.6872 22.1408 19.8217 22.1353 19.9525C22.1271 20.0832 22.1121 20.2076 22.0903 20.3255C22.0685 20.446 22.0371 20.5587 21.9962 20.6638C21.958 20.7715 21.9088 20.8702 21.8488 20.9599C21.7888 21.0522 21.7178 21.1355 21.6359 21.2099Z" fill="#C39240"/>
</svg>
