<svg width="224" height="224" viewBox="0 0 224 224" fill="none" xmlns="http://www.w3.org/2000/svg">
<path fill-rule="evenodd" clip-rule="evenodd" d="M217.803 204.601C216.359 205.746 214.667 206.717 212.725 207.513C210.784 208.31 208.668 208.932 206.379 209.38C204.039 209.828 201.525 210.176 198.837 210.425C196.199 210.624 193.412 210.724 190.475 210.724C187.588 210.724 184.576 210.699 181.44 210.649C178.354 210.55 175.193 210.425 171.957 210.276C168.722 210.127 165.486 210.002 162.251 209.903C158.965 209.753 155.705 209.679 152.469 209.679C149.284 209.629 146.123 209.679 142.987 209.828C139.851 209.977 136.814 210.226 133.877 210.575C130.94 210.923 128.078 211.371 125.291 211.919C122.503 212.416 119.79 212.989 117.152 213.636C114.514 214.283 111.975 214.98 109.536 215.727C107.047 216.424 104.608 217.121 102.219 217.817C99.8791 218.514 97.5893 219.211 95.3493 219.908C93.1093 220.555 90.944 221.153 88.8533 221.7C86.7129 222.248 84.6222 222.721 82.5813 223.119C80.5404 223.467 78.5493 223.716 76.608 223.866C74.6169 224.015 72.6756 224.04 70.784 223.94C68.8924 223.791 67.0507 223.492 65.2587 223.044C63.4169 222.596 61.6 221.999 59.808 221.252C58.0658 220.506 56.3733 219.61 54.7307 218.564C53.0382 217.519 51.3956 216.349 49.8027 215.055C48.2596 213.761 46.7413 212.367 45.248 210.873C43.8044 209.38 42.4107 207.812 41.0667 206.169C39.7724 204.477 38.528 202.71 37.3333 200.868C36.1387 199.076 35.0436 197.209 34.048 195.268C33.0524 193.326 32.1316 191.335 31.2853 189.294C30.4391 187.253 29.6924 185.188 29.0453 183.097C28.3982 181.006 27.8507 178.915 27.4027 176.825C26.9547 174.684 26.5813 172.544 26.2827 170.403C25.984 168.263 25.76 166.097 25.6107 163.907C25.4116 161.717 25.2622 159.502 25.1627 157.262C25.1129 155.022 25.0382 152.757 24.9387 150.467C24.8889 148.177 24.8391 145.862 24.7893 143.523C24.6898 141.183 24.5902 138.794 24.4907 136.355C24.3413 133.915 24.1422 131.451 23.8933 128.962C23.6942 126.424 23.3956 123.86 22.9973 121.272C22.5991 118.683 22.1262 116.045 21.5787 113.357C21.0311 110.669 20.3591 107.931 19.5627 105.143C18.7662 102.356 17.8951 99.5183 16.9493 96.6312C16.0533 93.7938 15.0827 90.9066 14.0373 87.9697C12.992 85.0825 11.9467 82.1953 10.9013 79.3082C9.80622 76.3712 8.76089 73.4592 7.76533 70.572C6.76978 67.6848 5.824 64.8226 4.928 61.9852C4.032 59.1478 3.23556 56.3602 2.53867 53.6224C1.84178 50.8845 1.26933 48.1965 0.821333 45.5582C0.423111 42.9199 0.174222 40.3563 0.0746667 37.8674C-0.0746667 35.4282 0 33.0388 0.298667 30.6992C0.597333 28.4094 1.12 26.2192 1.86667 24.1285C2.61333 22.0875 3.584 20.1213 4.77867 18.2297C5.92356 16.3879 7.24267 14.6705 8.736 13.0776C10.2791 11.4847 11.9467 10.0162 13.7387 8.67216C15.5804 7.37792 17.5218 6.20812 19.5627 5.16276C21.6036 4.11741 23.744 3.22139 25.984 2.47471C28.224 1.72803 30.5387 1.15558 32.928 0.757348C35.2676 0.359118 37.6569 0.110224 40.096 0.0106669C42.5351 -0.0391119 44.9742 0.085335 47.4133 0.384007C49.8524 0.68268 52.2667 1.15558 54.656 1.8027C56.9956 2.44982 59.3351 3.32095 61.6747 4.41608C63.9644 5.46144 66.2044 6.65613 68.3947 8.00015C70.5849 9.39396 72.7502 10.8873 74.8907 12.4802C77.0311 14.0732 79.1467 15.7656 81.2373 17.5577C83.328 19.3497 85.4187 21.1666 87.5093 23.0084C89.6 24.8502 91.6658 26.6921 93.7067 28.5339C95.7973 30.4255 97.888 32.2673 99.9787 34.0593C102.069 35.8016 104.185 37.494 106.325 39.1367C108.466 40.7794 110.631 42.2977 112.821 43.6915C115.012 45.0853 117.227 46.3298 119.467 47.4249C121.756 48.52 124.096 49.4409 126.485 50.1876C128.825 50.9343 131.214 51.5068 133.653 51.905C136.092 52.353 138.532 52.6517 140.971 52.801C143.41 53.0001 145.849 53.0997 148.288 53.0997C150.727 53.1495 153.141 53.1246 155.531 53.025C157.92 52.9752 160.26 52.9006 162.549 52.801C164.839 52.7014 167.054 52.6517 169.195 52.6517C171.335 52.6019 173.401 52.6268 175.392 52.7263C177.383 52.8259 179.25 53.0499 180.992 53.3983C182.784 53.697 184.427 54.145 185.92 54.7424C187.413 55.3397 188.782 56.1113 190.027 57.0571C191.271 58.0029 192.391 59.1229 193.387 60.4171C194.332 61.6616 195.204 63.0803 196 64.6732C196.796 66.2662 197.493 68.0084 198.091 69.9C198.738 71.7418 199.31 73.733 199.808 75.8734C200.356 78.0139 200.853 80.2789 201.301 82.6682C201.749 85.0078 202.197 87.4719 202.645 90.0604C203.093 92.6489 203.541 95.3369 203.989 98.1245C204.437 100.912 204.935 103.774 205.483 106.711C206.03 109.648 206.652 112.635 207.349 115.672C207.996 118.758 208.743 121.894 209.589 125.08C210.386 128.266 211.257 131.476 212.203 134.712C213.099 137.997 214.02 141.258 214.965 144.493C215.911 147.729 216.832 150.94 217.728 154.126C218.574 157.311 219.396 160.423 220.192 163.459C220.939 166.545 221.611 169.532 222.208 172.419C222.805 175.306 223.253 178.094 223.552 180.782C223.851 183.42 224 185.934 224 188.324C224 190.713 223.776 192.903 223.328 194.894C222.88 196.935 222.208 198.777 221.312 200.42C220.416 202.013 219.246 203.407 217.803 204.601Z" fill="#EEAB3C"/>
<path fill-rule="evenodd" clip-rule="evenodd" d="M186.601 177.23C185.576 178.043 184.375 178.732 182.997 179.297C181.619 179.863 180.117 180.304 178.492 180.622C176.831 180.94 175.047 181.188 173.139 181.364C171.266 181.506 169.288 181.576 167.203 181.576C165.154 181.576 163.016 181.559 160.79 181.523C158.599 181.453 156.356 181.364 154.059 181.258C151.762 181.152 149.466 181.064 147.169 180.993C144.837 180.887 142.523 180.834 140.226 180.834C137.965 180.799 135.721 180.834 133.495 180.94C131.269 181.046 129.114 181.223 127.029 181.47C124.944 181.718 122.913 182.036 120.934 182.424C118.955 182.778 117.03 183.184 115.157 183.643C113.284 184.103 111.482 184.597 109.751 185.127C107.984 185.622 106.253 186.117 104.557 186.612C102.896 187.106 101.271 187.601 99.681 188.096C98.091 188.555 96.554 188.979 95.07 189.368C93.5507 189.756 92.0667 190.092 90.618 190.375C89.1693 190.622 87.756 190.799 86.378 190.905C84.9647 191.011 83.5867 191.028 82.244 190.958C80.9013 190.852 79.594 190.64 78.322 190.322C77.0147 190.004 75.725 189.58 74.453 189.05C73.2163 188.52 72.015 187.884 70.849 187.142C69.6477 186.4 68.4817 185.569 67.351 184.65C66.2557 183.732 65.178 182.742 64.118 181.682C63.0933 180.622 62.104 179.509 61.15 178.343C60.2313 177.142 59.348 175.888 58.5 174.58C57.652 173.308 56.8747 171.983 56.168 170.605C55.4613 169.227 54.8077 167.814 54.207 166.365C53.6063 164.916 53.0763 163.45 52.617 161.966C52.1577 160.482 51.769 158.998 51.451 157.514C51.133 155.995 50.868 154.475 50.656 152.956C50.444 151.437 50.285 149.899 50.179 148.345C50.0377 146.79 49.9317 145.218 49.861 143.628C49.8257 142.038 49.7727 140.43 49.702 138.805C49.6667 137.179 49.6313 135.536 49.596 133.876C49.5253 132.215 49.4547 130.519 49.384 128.787C49.278 127.056 49.1367 125.307 48.96 123.54C48.8187 121.738 48.6067 119.919 48.324 118.081C48.0413 116.244 47.7057 114.371 47.317 112.463C46.9283 110.555 46.4513 108.612 45.886 106.633C45.3207 104.654 44.7023 102.64 44.031 100.591C43.395 98.5768 42.706 96.5275 41.964 94.4428C41.222 92.3934 40.48 90.344 39.738 88.2946C38.9607 86.2099 38.2187 84.1429 37.512 82.0935C36.8053 80.0442 36.134 78.0124 35.498 75.9984C34.862 73.9844 34.2967 72.0057 33.802 70.0623C33.3073 68.1189 32.901 66.2109 32.583 64.3382C32.3003 62.4655 32.1237 60.6458 32.053 58.8791C31.947 57.1477 32 55.4517 32.212 53.791C32.424 52.1656 32.795 50.6109 33.325 49.1269C33.855 47.6782 34.544 46.2825 35.392 44.9398C36.2047 43.6325 37.141 42.4134 38.201 41.2827C39.2963 40.1521 40.48 39.1097 41.752 38.1557C43.0593 37.237 44.4373 36.4067 45.886 35.6646C47.3347 34.9226 48.854 34.2866 50.444 33.7566C52.034 33.2266 53.677 32.8203 55.373 32.5376C57.0337 32.2549 58.7297 32.0782 60.461 32.0076C62.1923 31.9722 63.9237 32.0606 65.655 32.2726C67.3863 32.4846 69.1 32.8203 70.796 33.2796C72.4567 33.7389 74.1173 34.3573 75.778 35.1346C77.4033 35.8766 78.9933 36.7247 80.548 37.6787C82.1027 38.668 83.6397 39.7281 85.159 40.8587C86.6783 41.9894 88.18 43.1908 89.664 44.4628C91.148 45.7348 92.632 47.0245 94.116 48.3319C95.6 49.6392 97.0663 50.9466 98.515 52.254C99.999 53.5967 101.483 54.904 102.967 56.176C104.451 57.4127 105.953 58.6141 107.472 59.7801C108.991 60.9461 110.528 62.0238 112.083 63.0132C113.638 64.0025 115.21 64.8859 116.8 65.6632C118.425 66.4406 120.086 67.0942 121.782 67.6243C123.443 68.1543 125.139 68.5606 126.87 68.8433C128.601 69.1613 130.333 69.3733 132.064 69.4793C133.795 69.6206 135.527 69.6913 137.258 69.6913C138.989 69.7266 140.703 69.709 142.399 69.6383C144.095 69.603 145.756 69.55 147.381 69.4793C149.006 69.4086 150.579 69.3733 152.098 69.3733C153.617 69.3379 155.084 69.3556 156.497 69.4263C157.91 69.497 159.235 69.656 160.472 69.9033C161.744 70.1153 162.91 70.4333 163.97 70.8573C165.03 71.2813 166.002 71.829 166.885 72.5003C167.768 73.1717 168.563 73.9667 169.27 74.8854C169.941 75.7687 170.56 76.7758 171.125 77.9064C171.69 79.0371 172.185 80.2738 172.609 81.6165C173.068 82.9239 173.475 84.3372 173.828 85.8566C174.217 87.376 174.57 88.9837 174.888 90.6797C175.206 92.3404 175.524 94.0894 175.842 95.9268C176.16 97.7642 176.478 99.6722 176.796 101.651C177.114 103.63 177.467 105.661 177.856 107.746C178.245 109.831 178.686 111.951 179.181 114.106C179.64 116.297 180.17 118.523 180.771 120.784C181.336 123.046 181.955 125.325 182.626 127.621C183.262 129.953 183.916 132.268 184.587 134.565C185.258 136.861 185.912 139.14 186.548 141.402C187.149 143.663 187.732 145.871 188.297 148.027C188.827 150.217 189.304 152.338 189.728 154.387C190.152 156.436 190.47 158.415 190.682 160.323C190.894 162.196 191 163.98 191 165.676C191 167.372 190.841 168.927 190.523 170.34C190.205 171.789 189.728 173.096 189.092 174.262C188.456 175.393 187.626 176.382 186.601 177.23Z" fill="#D39B40"/>
<path fill-rule="evenodd" clip-rule="evenodd" d="M161.095 154.907C160.418 155.444 159.625 155.899 158.715 156.272C157.805 156.645 156.813 156.937 155.74 157.147C154.643 157.357 153.465 157.52 152.205 157.637C150.968 157.73 149.662 157.777 148.285 157.777C146.932 157.777 145.52 157.765 144.05 157.742C142.603 157.695 141.122 157.637 139.605 157.567C138.088 157.497 136.572 157.439 135.055 157.392C133.515 157.322 131.987 157.287 130.47 157.287C128.977 157.264 127.495 157.287 126.025 157.357C124.555 157.427 123.132 157.544 121.755 157.707C120.378 157.87 119.037 158.08 117.73 158.337C116.423 158.57 115.152 158.839 113.915 159.142C112.678 159.445 111.488 159.772 110.345 160.122C109.178 160.449 108.035 160.775 106.915 161.102C105.818 161.429 104.745 161.755 103.695 162.082C102.645 162.385 101.63 162.665 100.65 162.922C99.6467 163.179 98.6667 163.4 97.71 163.587C96.7533 163.75 95.82 163.867 94.91 163.937C93.9767 164.007 93.0667 164.019 92.18 163.972C91.2933 163.902 90.43 163.762 89.59 163.552C88.7267 163.342 87.875 163.062 87.035 162.712C86.2183 162.362 85.425 161.942 84.655 161.452C83.8617 160.962 83.0917 160.414 82.345 159.807C81.6217 159.2 80.91 158.547 80.21 157.847C79.5333 157.147 78.88 156.412 78.25 155.642C77.6433 154.848 77.06 154.02 76.5 153.157C75.94 152.317 75.4267 151.442 74.96 150.532C74.4933 149.622 74.0617 148.688 73.665 147.732C73.2683 146.775 72.9183 145.807 72.615 144.827C72.3117 143.847 72.055 142.867 71.845 141.887C71.635 140.883 71.46 139.88 71.32 138.877C71.18 137.873 71.075 136.858 71.005 135.831C70.9117 134.805 70.8417 133.766 70.795 132.716C70.7717 131.666 70.7367 130.605 70.69 129.531C70.6667 128.458 70.6433 127.373 70.62 126.276C70.5733 125.18 70.5267 124.06 70.48 122.916C70.41 121.773 70.3167 120.618 70.2 119.451C70.1067 118.261 69.9667 117.059 69.78 115.846C69.5933 114.633 69.3717 113.396 69.115 112.136C68.8583 110.876 68.5433 109.593 68.17 108.286C67.7967 106.979 67.3883 105.649 66.945 104.296C66.525 102.966 66.07 101.612 65.58 100.236C65.09 98.8824 64.6 97.5291 64.11 96.1757C63.5967 94.799 63.1067 93.434 62.64 92.0806C62.1733 90.7273 61.73 89.3856 61.31 88.0556C60.89 86.7255 60.5167 85.4188 60.19 84.1355C59.8633 82.8521 59.595 81.5921 59.385 80.3554C59.1983 79.1187 59.0817 77.917 59.035 76.7503C58.965 75.607 59 74.487 59.14 73.3903C59.28 72.3169 59.525 71.2902 59.875 70.3102C60.225 69.3535 60.68 68.4318 61.24 67.5452C61.7767 66.6818 62.395 65.8768 63.095 65.1301C63.8183 64.3834 64.6 63.6951 65.44 63.0651C66.3033 62.4584 67.2133 61.9101 68.17 61.42C69.1267 60.93 70.13 60.51 71.18 60.16C72.23 59.81 73.315 59.5417 74.435 59.355C75.5317 59.1683 76.6517 59.0517 77.795 59.005C78.9383 58.9817 80.0817 59.04 81.225 59.18C82.3683 59.32 83.5 59.5417 84.62 59.845C85.7167 60.1484 86.8133 60.5567 87.91 61.07C88.9833 61.56 90.0333 62.1201 91.06 62.7501C92.0867 63.4034 93.1017 64.1034 94.105 64.8501C95.1083 65.5968 96.1 66.3901 97.08 67.2302C98.06 68.0702 99.04 68.9219 100.02 69.7852C101 70.6486 101.968 71.5119 102.925 72.3753C103.905 73.2619 104.885 74.1253 105.865 74.9653C106.845 75.782 107.837 76.5753 108.84 77.3454C109.843 78.1154 110.858 78.827 111.885 79.4804C112.912 80.1337 113.95 80.7171 115 81.2304C116.073 81.7438 117.17 82.1754 118.29 82.5254C119.387 82.8755 120.507 83.1438 121.65 83.3305C122.793 83.5405 123.937 83.6805 125.08 83.7505C126.223 83.8438 127.367 83.8905 128.51 83.8905C129.653 83.9138 130.785 83.9021 131.905 83.8555C133.025 83.8321 134.122 83.7971 135.195 83.7505C136.268 83.7038 137.307 83.6805 138.31 83.6805C139.313 83.6571 140.282 83.6688 141.215 83.7155C142.148 83.7621 143.023 83.8671 143.84 84.0305C144.68 84.1705 145.45 84.3805 146.15 84.6605C146.85 84.9405 147.492 85.3022 148.075 85.7455C148.658 86.1889 149.183 86.7139 149.65 87.3205C150.093 87.9039 150.502 88.5689 150.875 89.3156C151.248 90.0623 151.575 90.8789 151.855 91.7656C152.158 92.629 152.427 93.5623 152.66 94.5657C152.917 95.569 153.15 96.6307 153.36 97.7507C153.57 98.8474 153.78 100.002 153.99 101.216C154.2 102.429 154.41 103.689 154.62 104.996C154.83 106.303 155.063 107.644 155.32 109.021C155.577 110.398 155.868 111.798 156.195 113.221C156.498 114.668 156.848 116.138 157.245 117.631C157.618 119.124 158.027 120.63 158.47 122.146C158.89 123.686 159.322 125.215 159.765 126.731C160.208 128.248 160.64 129.753 161.06 131.246C161.457 132.74 161.842 134.198 162.215 135.621C162.565 137.068 162.88 138.468 163.16 139.822C163.44 141.175 163.65 142.482 163.79 143.742C163.93 144.978 164 146.157 164 147.277C164 148.397 163.895 149.423 163.685 150.357C163.475 151.313 163.16 152.177 162.74 152.947C162.32 153.693 161.772 154.347 161.095 154.907Z" fill="#C39240"/>
</svg>
