<svg width="172" height="172" viewBox="0 0 172 172" fill="none" xmlns="http://www.w3.org/2000/svg">
<path fill-rule="evenodd" clip-rule="evenodd" d="M164.948 150.728C163.801 151.836 162.501 152.849 161.049 153.767C159.634 154.646 158.086 155.43 156.404 156.118C154.761 156.844 153.002 157.475 151.129 158.01C149.256 158.545 147.307 159.023 145.281 159.443C143.255 159.864 141.153 160.246 138.974 160.59C136.833 160.896 134.654 161.201 132.437 161.507C130.182 161.775 127.927 162.023 125.672 162.253C123.378 162.52 121.104 162.769 118.848 162.998C116.593 163.266 114.338 163.552 112.083 163.858C109.866 164.164 107.668 164.489 105.489 164.833C103.348 165.215 101.246 165.597 99.1818 165.98C97.0794 166.4 95.0344 166.821 93.0467 167.241C91.0208 167.661 89.0331 168.082 87.0837 168.502C85.1724 168.923 83.2803 169.324 81.4073 169.707C79.5343 170.051 77.6804 170.375 75.8456 170.681C74.049 171.025 72.2716 171.293 70.5132 171.484C68.7549 171.713 67.0157 171.866 65.2955 171.943C63.6137 172.019 61.9509 172.019 60.3072 171.943C58.6253 171.866 56.9817 171.713 55.3762 171.484C53.7708 171.216 52.1845 170.872 50.6172 170.452C49.05 169.993 47.521 169.439 46.0303 168.789C44.5013 168.139 43.0105 167.394 41.558 166.553C40.1054 165.75 38.6911 164.852 37.315 163.858C35.9389 162.902 34.6011 161.851 33.3014 160.705C32.0018 159.596 30.7595 158.411 29.5745 157.15C28.3513 155.926 27.2046 154.627 26.1343 153.251C25.0258 151.913 23.9746 150.518 22.9807 149.065C21.9869 147.651 21.0504 146.179 20.1712 144.65C19.292 143.159 18.4893 141.63 17.763 140.063C17.0368 138.496 16.3678 136.91 15.7562 135.304C15.1447 133.661 14.6095 132.017 14.1508 130.373C13.6539 128.73 13.2143 127.067 12.8321 125.385C12.4498 123.703 12.1058 122.002 11.8 120.282C11.4942 118.562 11.2075 116.803 10.9399 115.007C10.7106 113.249 10.4812 111.452 10.2519 109.617C10.0225 107.821 9.8123 105.986 9.62117 104.113C9.39183 102.24 9.16248 100.348 8.93313 98.4364C8.70378 96.5634 8.47443 94.6331 8.24508 92.6454C7.97751 90.6959 7.69082 88.7082 7.38503 86.6823C7.041 84.6946 6.67787 82.6687 6.29562 80.6046C5.91337 78.5404 5.51201 76.4572 5.09154 74.3548C4.67107 72.2907 4.25059 70.2074 3.83012 68.1051C3.40965 65.9645 2.98918 63.843 2.5687 61.7406C2.14823 59.6383 1.7851 57.555 1.4793 55.4909C1.13528 53.3885 0.829477 51.3244 0.561904 49.2985C0.332555 47.2726 0.179656 45.2658 0.103207 43.2781C-0.0114674 41.2904 -0.0305798 39.3409 0.0458697 37.4297C0.122319 35.5185 0.294331 33.6646 0.561904 31.868C0.829477 30.0332 1.23084 28.2749 1.76598 26.593C2.26291 24.9111 2.91273 23.2865 3.71545 21.7193C4.51817 20.1521 5.43556 18.6422 6.46763 17.1897C7.4997 15.7754 8.62733 14.4375 9.85052 13.1761C11.1119 11.9147 12.4689 10.7297 13.9215 9.62117C15.3358 8.51266 16.8265 7.4997 18.3938 6.5823C19.9992 5.62669 21.6429 4.78574 23.3248 4.05947C25.0449 3.29497 26.8032 2.64515 28.5998 2.11001C30.3581 1.57486 32.1547 1.13528 33.9895 0.791253C35.8625 0.44723 37.7164 0.217881 39.5512 0.103207C41.4242 -0.0114674 43.2781 -0.0305798 45.1129 0.0458697C46.9859 0.160544 48.8207 0.389893 50.6172 0.733916C52.452 1.07794 54.2677 1.51752 56.0643 2.05267C57.8226 2.58782 59.5809 3.19941 61.3393 3.88746C63.0976 4.5755 64.856 5.34 66.6143 6.18094C68.3344 6.98367 70.0545 7.84372 71.7746 8.76112C73.533 9.64029 75.2722 10.5577 76.9923 11.5133C78.7124 12.4689 80.4326 13.4245 82.1527 14.3802C83.911 15.2976 85.6693 16.2149 87.4277 17.1323C89.1478 18.0497 90.9061 18.9289 92.7027 19.7699C94.461 20.6108 96.2385 21.4135 98.0351 22.178C99.8699 22.9043 101.705 23.5541 103.539 24.1275C105.374 24.7391 107.228 25.2742 109.101 25.7329C110.936 26.2298 112.79 26.6694 114.663 27.0517C116.498 27.4339 118.332 27.7971 120.167 28.1411C122.002 28.5233 123.799 28.8865 125.557 29.2305C127.353 29.5363 129.093 29.8803 130.775 30.2625C132.495 30.6448 134.157 31.0462 135.763 31.4666C137.368 31.8871 138.916 32.3649 140.407 32.9001C141.898 33.4352 143.312 34.0277 144.65 34.6775C145.988 35.3273 147.249 36.0727 148.434 36.9137C149.619 37.7546 150.728 38.672 151.76 39.6658C152.754 40.6979 153.671 41.8255 154.512 43.0487C155.353 44.2719 156.118 45.5716 156.806 46.9477C157.494 48.3238 158.144 49.7954 158.755 51.3626C159.328 52.8916 159.864 54.5162 160.361 56.2363C160.857 57.9182 161.316 59.6765 161.737 61.5113C162.157 63.3079 162.539 65.1809 162.883 67.1303C163.266 69.0798 163.629 71.0675 163.973 73.0934C164.317 75.1575 164.661 77.2408 165.005 79.3432C165.349 81.4837 165.712 83.6626 166.094 85.8796C166.477 88.0584 166.859 90.2754 167.241 92.5307C167.661 94.786 168.063 97.0603 168.445 99.3538C168.866 101.647 169.267 103.922 169.649 106.177C170.031 108.47 170.375 110.726 170.681 112.943C171.025 115.198 171.293 117.415 171.484 119.594C171.713 121.773 171.866 123.894 171.943 125.958C172.019 128.022 172.019 130.029 171.943 131.979C171.828 133.928 171.618 135.782 171.312 137.54C171.006 139.337 170.567 141.019 169.993 142.586C169.458 144.191 168.77 145.663 167.929 147.001C167.088 148.377 166.094 149.619 164.948 150.728Z" fill="#EEAB3C"/>
<path fill-rule="evenodd" clip-rule="evenodd" d="M137.367 125.767C136.613 126.456 135.759 127.087 134.805 127.657C133.876 128.204 132.859 128.692 131.754 129.12C130.674 129.571 129.519 129.964 128.288 130.297C127.058 130.63 125.777 130.927 124.446 131.188C123.115 131.45 121.734 131.688 120.303 131.902C118.896 132.092 117.465 132.282 116.008 132.473C114.527 132.639 113.045 132.794 111.563 132.936C110.057 133.103 108.562 133.257 107.081 133.4C105.599 133.566 104.117 133.745 102.636 133.935C101.179 134.125 99.7352 134.327 98.3037 134.541C96.8974 134.779 95.5162 135.017 94.1601 135.255C92.7789 135.516 91.4354 135.778 90.1295 136.039C88.7986 136.301 87.4927 136.563 86.2119 136.824C84.9563 137.086 83.7132 137.335 82.4827 137.573C81.2522 137.787 80.0342 137.989 78.8288 138.18C77.6485 138.394 76.4807 138.56 75.3256 138.679C74.1704 138.822 73.0277 138.917 71.8977 138.964C70.7927 139.012 69.7003 139.012 68.6204 138.964C67.5155 138.917 66.4356 138.822 65.3809 138.679C64.3262 138.513 63.284 138.299 62.2543 138.037C61.2247 137.752 60.2202 137.407 59.2408 137.003C58.2363 136.598 57.2569 136.135 56.3026 135.611C55.3483 135.112 54.4192 134.553 53.5151 133.935C52.611 133.341 51.7321 132.687 50.8783 131.973C50.0244 131.284 49.2083 130.546 48.4298 129.762C47.6262 129.001 46.8728 128.192 46.1696 127.336C45.4413 126.504 44.7507 125.636 44.0978 124.732C43.4449 123.853 42.8296 122.937 42.252 121.986C41.6744 121.058 41.1471 120.107 40.6699 119.132C40.1928 118.157 39.7533 117.171 39.3515 116.172C38.9497 115.149 38.5981 114.127 38.2968 113.104C37.9703 112.082 37.6815 111.047 37.4304 110.001C37.1792 108.955 36.9532 107.897 36.7523 106.827C36.5514 105.756 36.3631 104.663 36.1873 103.545C36.0366 102.451 35.8859 101.333 35.7352 100.192C35.5846 99.0744 35.4465 97.933 35.3209 96.7679C35.1702 95.6027 35.0195 94.4256 34.8689 93.2366C34.7182 92.0714 34.5675 90.8706 34.4168 89.634C34.241 88.4213 34.0527 87.1848 33.8518 85.9245C33.6258 84.6879 33.3872 83.4276 33.1361 82.1435C32.8849 80.8595 32.6213 79.5635 32.345 78.2556C32.0688 76.9715 31.7925 75.6756 31.5163 74.3677C31.2401 73.036 30.9638 71.7163 30.6876 70.4084C30.4113 69.1006 30.1728 67.8046 29.9719 66.5205C29.7458 65.2126 29.5449 63.9286 29.3692 62.6682C29.2185 61.4079 29.118 60.1595 29.0678 58.923C28.9925 57.6865 28.9799 56.4737 29.0301 55.2848C29.0804 54.0958 29.1934 52.9425 29.3692 51.8249C29.5449 50.6834 29.8086 49.5896 30.1602 48.5433C30.4867 47.497 30.9136 46.4864 31.441 45.5114C31.9683 44.5365 32.571 43.5972 33.2491 42.6936C33.9271 41.8137 34.668 40.9815 35.4716 40.1967C36.3003 39.412 37.1918 38.6749 38.1461 37.9853C39.0752 37.2957 40.0546 36.6655 41.0843 36.0948C42.139 35.5003 43.2189 34.9772 44.3238 34.5254C45.4539 34.0498 46.6091 33.6455 47.7894 33.3126C48.9446 32.9797 50.1249 32.7062 51.3303 32.4922C52.5608 32.2782 53.7788 32.1355 54.9842 32.0642C56.2147 31.9929 57.4327 31.981 58.6381 32.0285C59.8686 32.0999 61.074 32.2425 62.2543 32.4566C63.4598 32.6706 64.6526 32.944 65.8329 33.277C66.9881 33.6099 68.1433 33.9903 69.2985 34.4184C70.4537 34.8464 71.6089 35.322 72.764 35.8451C73.8941 36.3445 75.0242 36.8795 76.1543 37.4502C77.3095 37.9972 78.4521 38.5679 79.5822 39.1623C80.7122 39.7568 81.8423 40.3513 82.9724 40.9458C84.1276 41.5165 85.2828 42.0872 86.438 42.6579C87.568 43.2286 88.7232 43.7755 89.9035 44.2987C91.0587 44.8218 92.2265 45.3212 93.4068 45.7968C94.6122 46.2486 95.8176 46.6528 97.023 47.0095C98.2284 47.39 99.4464 47.7229 100.677 48.0083C101.882 48.3174 103.1 48.5909 104.331 48.8287C105.536 49.0664 106.742 49.2924 107.947 49.5064C109.152 49.7442 110.333 49.9701 111.488 50.1841C112.668 50.3743 113.811 50.5883 114.916 50.8261C116.046 51.0639 117.138 51.3136 118.193 51.5752C119.248 51.8367 120.265 52.134 121.244 52.4669C122.224 52.7998 123.153 53.1684 124.032 53.5726C124.911 53.9769 125.739 54.4406 126.518 54.9637C127.296 55.4869 128.025 56.0576 128.703 56.6758C129.356 57.3179 129.958 58.0194 130.511 58.7803C131.063 59.5413 131.566 60.3498 132.018 61.2058C132.47 62.0619 132.897 62.9774 133.298 63.9523C133.675 64.9035 134.027 65.9141 134.353 66.9842C134.68 68.0305 134.981 69.1243 135.257 70.2658C135.533 71.3834 135.785 72.5486 136.011 73.7613C136.262 74.9741 136.5 76.2106 136.726 77.4709C136.952 78.755 137.178 80.051 137.404 81.3588C137.63 82.6905 137.869 84.0459 138.12 85.4251C138.371 86.7805 138.622 88.1597 138.873 89.5627C139.15 90.9657 139.413 92.3806 139.665 93.8073C139.941 95.2341 140.204 96.6489 140.456 98.0519C140.707 99.4787 140.933 100.882 141.134 102.261C141.36 103.664 141.535 105.043 141.661 106.398C141.812 107.754 141.912 109.074 141.962 110.358C142.013 111.642 142.013 112.89 141.962 114.103C141.887 115.316 141.749 116.469 141.548 117.563C141.347 118.681 141.058 119.727 140.682 120.702C140.33 121.701 139.878 122.616 139.325 123.448C138.773 124.304 138.12 125.077 137.367 125.767Z" fill="#D39B40"/>
<path fill-rule="evenodd" clip-rule="evenodd" d="M116.294 109.332C115.854 109.732 115.355 110.097 114.798 110.428C114.255 110.744 113.661 111.027 113.016 111.275C112.385 111.537 111.71 111.764 110.991 111.957C110.273 112.15 109.525 112.322 108.747 112.474C107.97 112.625 107.163 112.763 106.327 112.887C105.506 112.997 104.67 113.108 103.819 113.218C102.954 113.314 102.088 113.404 101.223 113.486C100.343 113.583 99.47 113.672 98.6046 113.755C97.7392 113.852 96.8739 113.955 96.0085 114.065C95.1577 114.175 94.3144 114.292 93.4783 114.416C92.6569 114.554 91.8502 114.692 91.0581 114.83C90.2514 114.981 89.4667 115.133 88.704 115.285C87.9266 115.436 87.1639 115.588 86.4158 115.739C85.6824 115.891 84.9564 116.035 84.2377 116.173C83.519 116.297 82.8076 116.414 82.1035 116.525C81.4142 116.649 80.7321 116.745 80.0574 116.814C79.3827 116.897 78.7153 116.952 78.0553 116.979C77.4099 117.007 76.7719 117.007 76.1411 116.979C75.4958 116.952 74.8651 116.897 74.249 116.814C73.633 116.718 73.0243 116.594 72.4229 116.442C71.8215 116.277 71.2348 116.077 70.6628 115.843C70.0761 115.608 69.504 115.34 68.9467 115.037C68.3893 114.747 67.8466 114.423 67.3186 114.065C66.7905 113.721 66.2772 113.342 65.7785 112.928C65.2798 112.529 64.8031 112.102 64.3484 111.647C63.879 111.206 63.439 110.738 63.0283 110.242C62.6029 109.759 62.1995 109.256 61.8182 108.733C61.4368 108.223 61.0775 107.692 60.7401 107.141C60.4028 106.604 60.0947 106.053 59.8161 105.488C59.5374 104.923 59.2807 104.351 59.046 103.772C58.8113 103.18 58.606 102.587 58.43 101.995C58.2393 101.403 58.0706 100.803 57.9239 100.197C57.7773 99.5906 57.6452 98.9775 57.5279 98.3574C57.4106 97.7374 57.3006 97.1036 57.1979 96.456C57.1099 95.8221 57.0219 95.1745 56.9339 94.5132C56.8459 93.8656 56.7652 93.2042 56.6918 92.529C56.6038 91.8539 56.5158 91.1718 56.4278 90.4829C56.3398 89.8077 56.2518 89.1119 56.1638 88.3954C56.0611 87.6927 55.9511 86.9762 55.8338 86.2459C55.7018 85.5295 55.5624 84.7992 55.4158 84.0551C55.2691 83.3111 55.1151 82.5601 54.9537 81.8023C54.7924 81.0583 54.631 80.3073 54.4697 79.5495C54.3084 78.7779 54.147 78.0132 53.9857 77.2553C53.8243 76.4975 53.685 75.7466 53.5676 75.0025C53.4356 74.2447 53.3183 73.5007 53.2156 72.7704C53.1276 72.0401 53.0689 71.3167 53.0396 70.6002C52.9956 69.8837 52.9883 69.181 53.0176 68.4921C53.0469 67.8032 53.1129 67.1349 53.2156 66.4873C53.3183 65.8259 53.4723 65.1921 53.6776 64.5858C53.8683 63.9796 54.1177 63.394 54.4257 62.8291C54.7337 62.2641 55.0857 61.7199 55.4818 61.1963C55.8778 60.6865 56.3105 60.2042 56.7799 59.7495C57.2639 59.2948 57.7846 58.8677 58.342 58.4681C58.8847 58.0685 59.4567 57.7034 60.0581 57.3727C60.6741 57.0282 61.3048 56.7251 61.9502 56.4633C62.6102 56.1877 63.285 55.9535 63.9743 55.7606C64.649 55.5677 65.3384 55.4092 66.0425 55.2852C66.7612 55.1612 67.4726 55.0785 68.1766 55.0372C68.8953 54.9959 69.6067 54.989 70.3108 55.0165C71.0295 55.0579 71.7335 55.1405 72.4229 55.2646C73.1269 55.3886 73.8237 55.547 74.513 55.7399C75.1877 55.9328 75.8625 56.1533 76.5372 56.4013C77.2119 56.6493 77.8866 56.9249 78.5613 57.228C79.2213 57.5174 79.8814 57.8274 80.5414 58.1581C81.2161 58.475 81.8835 58.8057 82.5436 59.1501C83.2036 59.4946 83.8637 59.8391 84.5237 60.1835C85.1984 60.5142 85.8731 60.8449 86.5478 61.1756C87.2079 61.5063 87.8826 61.8232 88.572 62.1263C89.2467 62.4295 89.9287 62.7188 90.6181 62.9944C91.3222 63.2562 92.0262 63.4904 92.7302 63.6971C93.4343 63.9176 94.1457 64.1105 94.8644 64.2758C95.5684 64.4549 96.2798 64.6134 96.9985 64.7512C97.7026 64.889 98.4066 65.0199 99.1107 65.1439C99.8147 65.2817 100.504 65.4126 101.179 65.5366C101.868 65.6468 102.536 65.7708 103.181 65.9086C103.841 66.0464 104.479 66.1911 105.095 66.3426C105.711 66.4942 106.305 66.6664 106.877 66.8593C107.449 67.0522 107.992 67.2658 108.505 67.5C109.019 67.7343 109.503 68.003 109.957 68.3061C110.412 68.6092 110.837 68.9399 111.233 69.2982C111.615 69.6702 111.967 70.0766 112.29 70.5176C112.612 70.9585 112.906 71.427 113.17 71.923C113.434 72.419 113.683 72.9495 113.918 73.5144C114.138 74.0656 114.343 74.6512 114.534 75.2712C114.724 75.8775 114.9 76.5113 115.062 77.1727C115.223 77.8203 115.37 78.4954 115.502 79.1981C115.648 79.9009 115.788 80.6174 115.92 81.3476C116.052 82.0917 116.184 82.8426 116.316 83.6004C116.448 84.372 116.587 85.1574 116.734 85.9566C116.881 86.742 117.027 87.5411 117.174 88.3541C117.335 89.167 117.489 89.9869 117.636 90.8136C117.797 91.6403 117.951 92.4601 118.098 93.2731C118.245 94.0998 118.377 94.9127 118.494 95.7119C118.626 96.5249 118.729 97.324 118.802 98.1094C118.89 98.8948 118.949 99.6595 118.978 100.404C119.007 101.148 119.007 101.871 118.978 102.574C118.934 103.276 118.853 103.945 118.736 104.579C118.619 105.226 118.45 105.832 118.23 106.397C118.025 106.976 117.761 107.506 117.438 107.989C117.115 108.485 116.734 108.933 116.294 109.332Z" fill="#C39240"/>
</svg>
